<svg width="100%" height="100%" viewBox="0 0 800 600" version="1.1" xmlns="http://www.w3.org/2000/svg" xmlns:Xlink="http://www.w3.org/1999/xlink" xml:space="preserve" style="fill-rule:evenodd;clip-rule:evenodd;stroke-linecap:round;stroke-linejoin:round;stroke-miterlimit:1.5;">
    <rect id="Artboard1" x="0" y="0" width="800" height="600" style="fill:none;"/>
    <g id="Artboard11">
        <g transform="matrix(1.87795,-0.165408,-0.496224,1.87795,-129.858,-442.082)">
            <path d="M413.205,465.473C443.082,482.723 476.313,465.569 500.803,479.709C530.681,496.959 500.97,516.144 525.461,530.284" style="fill:none;stroke:rgb(50,99,186);stroke-width:2.9px;"/>
        </g>
        <g transform="matrix(1.87795,-0.165408,-0.496224,1.87795,-129.858,-442.082)">
            <path d="M413.205,465.473C443.082,482.723 476.313,465.569 500.803,479.709C530.681,496.959 500.97,516.144 525.461,530.284" style="fill:none;stroke:rgb(83,128,207);stroke-width:0.58px;"/>
        </g>
        <g transform="matrix(1.87795,-0.165408,-0.496224,1.87795,-40.5329,-390.51)">
            <path d="M388.548,414.898C418.425,432.148 388.714,451.334 413.205,465.473C443.082,482.723 476.313,465.569 500.803,479.709" style="fill:none;stroke:rgb(50,99,186);stroke-width:2.9px;"/>
        </g>
        <g transform="matrix(1.87795,-0.165408,-0.496224,1.87795,-40.5329,-390.51)">
            <path d="M388.548,414.898C418.425,432.148 388.714,451.334 413.205,465.473C443.082,482.723 476.313,465.569 500.803,479.709" style="fill:none;stroke:rgb(83,128,207);stroke-width:0.58px;"/>
        </g>
        <g transform="matrix(0.808955,0,0,0.808955,200.872,-81.9219)">
            <g transform="matrix(1.90602,0,0,1.90602,-568.795,-7433.61)">
                <path d="M603.667,4261.32L668.95,4262.56L668.95,4272.98L668.939,4272.98C668.638,4282.39 662.271,4291.76 649.838,4298.94C624.356,4313.65 582.979,4313.65 557.496,4298.94C545.064,4291.76 538.697,4282.39 538.396,4272.98L538.385,4272.98L538.385,4262.58L603.667,4261.32Z" style="fill:rgb(175,218,203);"/>
            </g>
            <g transform="matrix(-2.10126,1.21316,-2.42632,-1.40084,1972.68,10988.3)">
                <path d="M-3913.49,3998.7C-3890.38,3998.7 -3871.61,3982.45 -3871.61,3962.43C-3871.61,3942.41 -3890.38,3926.16 -3913.49,3926.16C-3936.61,3926.16 -3955.37,3942.41 -3955.37,3962.43C-3955.37,3982.45 -3936.61,3998.7 -3913.49,3998.7" style="fill:rgb(217,243,234);"/>
            </g>
        </g>
        <g transform="matrix(2.03837,0,0,2.03837,-300.706,-536.749)">
            <g transform="matrix(0.132299,0,0,0.132299,400.494,339.98)">
                <g>
                    <g>
                        <g transform="matrix(1.44883,0,0,1.44883,-250.633,-556.126)">
                            <g transform="matrix(1.1388,0,0,1.1388,17.7382,408.209)">
                                <path d="M423.214,690.079C423.797,689.648 424.43,689.233 425.115,688.838C448.491,675.341 494.723,648.649 518.1,635.153C526.269,630.437 539.208,629.916 548.43,633.933C566.388,641.755 595.526,654.447 615.352,663.082C616.482,663.575 617.523,664.121 618.465,664.714L618.465,664.697L624.566,664.697L624.566,673.76L624.566,673.76C624.566,677.294 622.14,680.699 617.781,683.216C589.555,699.512 536.587,730.093 508.361,746.389C503.621,749.126 497.06,750.543 490.372,750.274C483.685,750.005 477.527,748.076 473.49,744.987C458.532,733.54 436.55,716.717 423.002,706.349C419.729,703.844 418.195,700.864 418.339,697.919L418.33,697.913L418.33,687.26L423.214,690.079Z" style="fill:url(#_Linear1);"/>
                            </g>
                            <g transform="matrix(0.389053,-0.22462,0.389053,0.22462,-241.826,1318.84)">
                                <path d="M1604.71,863.658C1606.63,877.399 1602.51,891.3 1593.4,901.769C1584.29,912.238 1571.1,918.249 1557.22,918.249L1236.94,918.249C1223.07,918.249 1209.87,912.238 1200.77,901.769C1191.66,891.3 1187.54,877.399 1189.46,863.658C1196.59,812.75 1207.06,737.933 1213.51,691.823C1216.83,668.143 1237.08,650.525 1261,650.525C1329.42,650.525 1464.75,650.525 1533.17,650.525C1557.08,650.525 1577.34,668.143 1580.65,691.823C1587.11,737.933 1597.58,812.75 1604.71,863.658Z" style="fill:url(#_Linear2);"/>
                            </g>
                        </g>
                        <g transform="matrix(2.06702,0,0,2.06702,-738.509,-1128.1)">
                            <path d="M495.649,1152.32C493.981,1151.24 492.936,1148.9 492.936,1145.64L492.936,906.235C492.936,900.051 496.701,892.857 501.339,890.179L787.467,724.983C789.334,723.906 791.059,723.723 792.454,724.292L792.454,724.292L792.454,724.292C792.805,724.435 793.135,724.626 793.442,724.862L801.026,729.241L801.026,750.308L784.347,740.678L784.347,964.092C784.347,970.276 780.582,977.47 775.944,980.148L504.613,1136.8L504.613,1157.5L496.04,1152.55C495.906,1152.48 495.776,1152.4 495.65,1152.32L495.649,1152.32L495.649,1152.32Z" style="fill:url(#_Linear3);"/>
                            <clipPath id="_clip4">
                                <path d="M495.649,1152.32C493.981,1151.24 492.936,1148.9 492.936,1145.64L492.936,906.235C492.936,900.051 496.701,892.857 501.339,890.179L787.467,724.983C789.334,723.906 791.059,723.723 792.454,724.292L792.454,724.292L792.454,724.292C792.805,724.435 793.135,724.626 793.442,724.862L801.026,729.241L801.026,750.308L784.347,740.678L784.347,964.092C784.347,970.276 780.582,977.47 775.944,980.148L504.613,1136.8L504.613,1157.5L496.04,1152.55C495.906,1152.48 495.776,1152.4 495.65,1152.32L495.649,1152.32L495.649,1152.32Z"/>
                            </clipPath>
                            <g clip-path="url(#_clip4)">
                                <g transform="matrix(0.481534,0.278014,-1.47999e-17,0.467675,224.337,636.007)">
                                    <rect x="544.77" y="716.934" width="34.322" height="68.2" style="fill:url(#_Linear5);"/>
                                </g>
                            </g>
                            <g transform="matrix(0.92108,-0.531786,6.22078e-17,1.19848,-50.9447,-25.8419)">
                                <path d="M928.891,1047.89C928.891,1043.11 925.105,1039.23 920.441,1039.23L608.45,1039.23C603.786,1039.23 600,1043.11 600,1047.89L600,1248.24C600,1253.02 603.786,1256.9 608.45,1256.9L920.441,1256.9C925.105,1256.9 928.891,1253.02 928.891,1248.24L928.891,1047.89Z" style="fill:rgb(74,71,87);"/>
                                <clipPath id="_clip6">
                                    <path d="M928.891,1047.89C928.891,1043.11 925.105,1039.23 920.441,1039.23L608.45,1039.23C603.786,1039.23 600,1043.11 600,1047.89L600,1248.24C600,1253.02 603.786,1256.9 608.45,1256.9L920.441,1256.9C925.105,1256.9 928.891,1253.02 928.891,1248.24L928.891,1047.89Z"/>
                                </clipPath>
                                <g clip-path="url(#_clip6)">
                                    <g transform="matrix(0.944522,1.11022e-16,2.5161e-17,0.8645,41.7366,151.387)">
                                        <path d="M928.891,1047.89C928.891,1043.11 925.426,1039.23 921.157,1039.23L607.734,1039.23C603.465,1039.23 600,1043.11 600,1047.89L600,1248.24C600,1253.02 603.465,1256.9 607.734,1256.9L921.157,1256.9C925.426,1256.9 928.891,1253.02 928.891,1248.24L928.891,1047.89Z" style="fill:rgb(217,243,234);"/>
                                    </g>
                                    <g transform="matrix(0.940229,-5.47234e-17,-1.21962e-17,0.680491,52.5589,402.84)">
                                        <rect x="567.98" y="1218.44" width="377.874" height="50.557" style="fill:rgb(83,128,207);"/>
                                    </g>
                                    <g transform="matrix(0.776508,6.34807e-18,-4.54191e-32,0.736967,176.942,332.13)">
                                        <ellipse cx="760.139" cy="1237.29" rx="11.444" ry="9.911" style="fill:white;"/>
                                    </g>
                                </g>
                            </g>
                        </g>
                    </g>
                </g>
            </g>
            <g transform="matrix(0.991503,-0.572444,5.55112e-17,1.1547,-77.3112,43.4211)">
                <path d="M599.334,611.308C599.334,609.699 598.193,608.393 596.788,608.393L557.045,608.393C555.639,608.393 554.498,609.699 554.498,611.308L554.498,647.122C554.498,648.73 555.639,650.037 557.045,650.037L596.788,650.037C598.193,650.037 599.334,648.73 599.334,647.122L599.334,611.308Z" style="fill:white;"/>
            </g>
            <g transform="matrix(0.49468,-0.285603,5.55112e-17,1.1547,172.554,-100.839)">
                <path d="M599.334,610.186C599.334,609.196 597.928,608.393 596.196,608.393L557.637,608.393C555.905,608.393 554.498,609.196 554.498,610.186L554.498,648.244C554.498,649.233 555.905,650.037 557.637,650.037L596.196,650.037C597.928,650.037 599.334,649.233 599.334,648.244L599.334,610.186Z" style="fill:white;"/>
            </g>
            <g transform="matrix(0.890382,-0.514062,5.55112e-17,1.1547,-12.6445,7.30029)">
                <path d="M527.658,636.115C527.658,635.741 527.362,635.436 526.997,635.436L519.793,635.436C519.429,635.436 519.133,635.741 519.133,636.115L519.133,641.549C519.133,641.924 519.429,642.228 519.793,642.228L526.997,642.228C527.362,642.228 527.658,641.924 527.658,641.549L527.658,636.115Z" style="fill:rgb(175,218,203);"/>
            </g>
            <g transform="matrix(0.890382,-0.514062,5.55112e-17,1.1547,-3.878,2.23896)">
                <path d="M527.658,636.115C527.658,635.741 527.362,635.436 526.997,635.436L519.793,635.436C519.429,635.436 519.133,635.741 519.133,636.115L519.133,641.549C519.133,641.924 519.429,642.228 519.793,642.228L526.997,642.228C527.362,642.228 527.658,641.924 527.658,641.549L527.658,636.115Z" style="fill:rgb(175,218,203);"/>
            </g>
            <g transform="matrix(0.866025,-0.5,5.55112e-17,1.1547,0,0)">
                <path d="M530.236,610.694C530.236,610.384 529.984,610.133 529.674,610.133L518.853,610.133C518.543,610.133 518.291,610.384 518.291,610.694L518.291,611.817C518.291,612.126 518.543,612.378 518.853,612.378L529.674,612.378C529.984,612.378 530.236,612.126 530.236,611.817L530.236,610.694Z" style="fill:rgb(74,71,87);"/>
            </g>
            <g transform="matrix(1.35772,-0.783881,3.71676e-17,0.773132,-254.842,385.766)">
                <path d="M530.236,610.694C530.236,610.384 530.128,610.133 529.996,610.133L518.531,610.133C518.399,610.133 518.291,610.384 518.291,610.694L518.291,611.817C518.291,612.126 518.399,612.378 518.531,612.378L529.996,612.378C530.128,612.378 530.236,612.126 530.236,611.817L530.236,610.694Z" style="fill:rgb(74,71,87);"/>
            </g>
            <g transform="matrix(1.35772,-0.783881,3.71676e-17,0.773132,-254.842,389.017)">
                <path d="M530.236,610.694C530.236,610.384 530.128,610.133 529.996,610.133L518.531,610.133C518.399,610.133 518.291,610.384 518.291,610.694L518.291,611.817C518.291,612.126 518.399,612.378 518.531,612.378L529.996,612.378C530.128,612.378 530.236,612.126 530.236,611.817L530.236,610.694Z" style="fill:rgb(74,71,87);"/>
            </g>
            <g transform="matrix(1.15463,-0.666627,3.71676e-17,0.773132,-149.583,331.497)">
                <path d="M530.236,610.694C530.236,610.384 530.109,610.133 529.954,610.133L518.573,610.133C518.418,610.133 518.291,610.384 518.291,610.694L518.291,611.817C518.291,612.126 518.418,612.378 518.573,612.378L529.954,612.378C530.109,612.378 530.236,612.126 530.236,611.817L530.236,610.694Z" style="fill:rgb(74,71,87);"/>
            </g>
            <g>
                <g transform="matrix(0.661377,-0.381846,1.6867e-17,0.37857,106.943,429.917)">
                    <rect x="518.962" y="626.67" width="1.968" height="7.21" style="fill:rgb(83,207,164);"/>
                </g>
                <g transform="matrix(0.661377,-0.381846,6.46108e-17,0.627641,108.988,270.856)">
                    <rect x="518.962" y="626.67" width="1.968" height="7.21" style="fill:rgb(83,207,164);"/>
                </g>
                <g transform="matrix(0.661377,-0.381846,7.85743e-17,1.12047,111.033,-42.7169)">
                    <rect x="518.962" y="626.67" width="1.968" height="7.21" style="fill:rgb(83,207,164);"/>
                </g>
                <g transform="matrix(0.661377,-0.381846,6.46108e-17,0.921349,113.077,82.3194)">
                    <rect x="518.962" y="626.67" width="1.968" height="7.21" style="fill:rgb(83,207,164);"/>
                </g>
                <g transform="matrix(0.661377,-0.381846,4.67993e-17,0.667356,115.122,242.14)">
                    <rect x="518.962" y="626.67" width="1.968" height="7.21" style="fill:rgb(83,207,164);"/>
                </g>
                <g transform="matrix(0.661377,-0.381846,7.11078e-17,1.014,117.167,21.2317)">
                    <rect x="518.962" y="626.67" width="1.968" height="7.21" style="fill:rgb(83,207,164);"/>
                </g>
                <g transform="matrix(0.661377,-0.381846,8.10364e-17,1.15558,119.211,-69.695)">
                    <rect x="518.962" y="626.67" width="1.968" height="7.21" style="fill:rgb(83,207,164);"/>
                </g>
                <g transform="matrix(0.661377,-0.381846,9.1195e-17,1.30044,121.256,-162.7)">
                    <rect x="518.962" y="626.67" width="1.968" height="7.21" style="fill:rgb(83,207,164);"/>
                </g>
            </g>
            <g transform="matrix(1,0,0,0.514213,0,205.334)">
                <path d="M494.956,430.589L494.956,448.067" style="fill:none;stroke:rgb(74,71,87);stroke-width:0.93px;"/>
            </g>
            <g transform="matrix(0.866025,-0.5,4.80741e-17,1,69.4883,240.948)">
                <circle cx="491.006" cy="426.107" r="2.565" style="fill:rgb(83,128,207);"/>
                <g transform="matrix(1.22095,0,0,1.22095,-108.488,-94.8032)">
                    <path d="M487.43,433.077C487.259,433.077 487.097,433.001 486.987,432.87C486.877,432.739 486.831,432.567 486.86,432.398C487.288,430.499 488.982,429.072 491.006,429.072C493.03,429.072 494.724,430.499 495.135,432.401C495.164,432.565 495.119,432.733 495.012,432.86C494.905,432.987 494.748,433.06 494.581,433.06C493.012,433.077 489,433.077 487.43,433.077Z" style="fill:rgb(83,128,207);"/>
                </g>
            </g>
            <g transform="matrix(1,0,0,1,-0.25604,-2.30436)">
                <g transform="matrix(0.866025,-0.5,6.39186e-17,1.32959,-5.23448e-15,-108.884)">
                    <path d="M591.248,615.079C591.248,614.618 590.817,614.243 590.286,614.243L578.906,614.243C578.375,614.243 577.944,614.618 577.944,615.079L577.944,621.763C577.944,622.224 578.375,622.599 578.906,622.599L590.286,622.599C590.817,622.599 591.248,622.224 591.248,621.763L591.248,615.079Z" style="fill:rgb(175,218,203);"/>
                </g>
                <g transform="matrix(0.866025,-0.5,5.55112e-17,1.1547,0,0)">
                    <path d="M583.748,614.44C583.748,614.322 583.652,614.226 583.534,614.226L579.719,614.226C579.601,614.226 579.505,614.322 579.505,614.44L579.505,614.869C579.505,614.987 579.601,615.083 579.719,615.083L583.534,615.083C583.652,615.083 583.748,614.987 583.748,614.869L583.748,614.44Z" style="fill:rgb(74,71,87);"/>
                </g>
                <g transform="matrix(0.557578,-0.321918,5.55112e-17,1.1547,178.747,-100.657)">
                    <path d="M583.748,614.44C583.748,614.322 583.599,614.226 583.416,614.226L579.837,614.226C579.654,614.226 579.505,614.322 579.505,614.44L579.505,614.869C579.505,614.987 579.654,615.083 579.837,615.083L583.416,615.083C583.599,615.083 583.748,614.987 583.748,614.869L583.748,614.44Z" style="fill:rgb(74,71,87);"/>
                </g>
                <g transform="matrix(0.557578,-0.321918,5.55112e-17,1.1547,178.747,-98.8703)">
                    <path d="M583.748,614.44C583.748,614.322 583.599,614.226 583.416,614.226L579.837,614.226C579.654,614.226 579.505,614.322 579.505,614.44L579.505,614.869C579.505,614.987 579.654,615.083 579.837,615.083L583.416,615.083C583.599,615.083 583.748,614.987 583.748,614.869L583.748,614.44Z" style="fill:rgb(74,71,87);"/>
                </g>
                <g transform="matrix(0.557578,-0.321918,5.55112e-17,1.1547,178.747,-97.0832)">
                    <path d="M583.748,614.44C583.748,614.322 583.599,614.226 583.416,614.226L579.837,614.226C579.654,614.226 579.505,614.322 579.505,614.44L579.505,614.869C579.505,614.987 579.654,615.083 579.837,615.083L583.416,615.083C583.599,615.083 583.748,614.987 583.748,614.869L583.748,614.44Z" style="fill:rgb(74,71,87);"/>
                </g>
                <g transform="matrix(1.06041,-0.612227,5.55112e-17,1.1547,-109.172,65.5726)">
                    <path d="M583.748,614.44C583.748,614.322 583.67,614.226 583.573,614.226L579.68,614.226C579.583,614.226 579.505,614.322 579.505,614.44L579.505,614.869C579.505,614.987 579.583,615.083 579.68,615.083L583.573,615.083C583.67,615.083 583.748,614.987 583.748,614.869L583.748,614.44Z" style="fill:rgb(74,71,87);"/>
                </g>
                <g transform="matrix(1.16854,-0.674658,5.55112e-17,1.1547,-171.836,103.539)">
                    <path d="M583.748,614.44C583.748,614.322 583.677,614.226 583.589,614.226L579.664,614.226C579.576,614.226 579.505,614.322 579.505,614.44L579.505,614.869C579.505,614.987 579.576,615.083 579.664,615.083L583.589,615.083C583.677,615.083 583.748,614.987 583.748,614.869L583.748,614.44Z" style="fill:rgb(74,71,87);"/>
                </g>
                <g transform="matrix(0.830187,-0.479309,5.55112e-17,1.1547,24.2417,-7.8797)">
                    <path d="M583.748,614.44C583.748,614.322 583.648,614.226 583.525,614.226L579.728,614.226C579.605,614.226 579.505,614.322 579.505,614.44L579.505,614.869C579.505,614.987 579.605,615.083 579.728,615.083L583.525,615.083C583.648,615.083 583.748,614.987 583.748,614.869L583.748,614.44Z" style="fill:rgb(74,71,87);"/>
                </g>
            </g>
            <g transform="matrix(1,0,0,1,1.20491,28.09)">
                <g transform="matrix(0.866025,-0.5,6.39186e-17,1.32959,-5.23448e-15,-108.884)">
                    <path d="M591.248,615.079C591.248,614.618 590.817,614.243 590.286,614.243L578.906,614.243C578.375,614.243 577.944,614.618 577.944,615.079L577.944,621.763C577.944,622.224 578.375,622.599 578.906,622.599L590.286,622.599C590.817,622.599 591.248,622.224 591.248,621.763L591.248,615.079Z" style="fill:rgb(175,218,203);"/>
                </g>
                <g transform="matrix(0.866025,-0.5,5.55112e-17,1.1547,0,0)">
                    <path d="M583.748,614.44C583.748,614.322 583.652,614.226 583.534,614.226L579.719,614.226C579.601,614.226 579.505,614.322 579.505,614.44L579.505,614.869C579.505,614.987 579.601,615.083 579.719,615.083L583.534,615.083C583.652,615.083 583.748,614.987 583.748,614.869L583.748,614.44Z" style="fill:rgb(74,71,87);"/>
                </g>
                <g transform="matrix(0.557578,-0.321918,5.55112e-17,1.1547,178.747,-100.657)">
                    <path d="M583.748,614.44C583.748,614.322 583.599,614.226 583.416,614.226L579.837,614.226C579.654,614.226 579.505,614.322 579.505,614.44L579.505,614.869C579.505,614.987 579.654,615.083 579.837,615.083L583.416,615.083C583.599,615.083 583.748,614.987 583.748,614.869L583.748,614.44Z" style="fill:rgb(74,71,87);"/>
                </g>
                <g transform="matrix(0.557578,-0.321918,5.55112e-17,1.1547,178.747,-98.8703)">
                    <path d="M583.748,614.44C583.748,614.322 583.599,614.226 583.416,614.226L579.837,614.226C579.654,614.226 579.505,614.322 579.505,614.44L579.505,614.869C579.505,614.987 579.654,615.083 579.837,615.083L583.416,615.083C583.599,615.083 583.748,614.987 583.748,614.869L583.748,614.44Z" style="fill:rgb(74,71,87);"/>
                </g>
                <g transform="matrix(0.557578,-0.321918,5.55112e-17,1.1547,178.747,-97.0832)">
                    <path d="M583.748,614.44C583.748,614.322 583.599,614.226 583.416,614.226L579.837,614.226C579.654,614.226 579.505,614.322 579.505,614.44L579.505,614.869C579.505,614.987 579.654,615.083 579.837,615.083L583.416,615.083C583.599,615.083 583.748,614.987 583.748,614.869L583.748,614.44Z" style="fill:rgb(74,71,87);"/>
                </g>
                <g transform="matrix(1.06041,-0.612227,5.55112e-17,1.1547,-109.172,65.5726)">
                    <path d="M583.748,614.44C583.748,614.322 583.67,614.226 583.573,614.226L579.68,614.226C579.583,614.226 579.505,614.322 579.505,614.44L579.505,614.869C579.505,614.987 579.583,615.083 579.68,615.083L583.573,615.083C583.67,615.083 583.748,614.987 583.748,614.869L583.748,614.44Z" style="fill:rgb(74,71,87);"/>
                </g>
                <g transform="matrix(1.16854,-0.674658,5.55112e-17,1.1547,-171.836,103.539)">
                    <path d="M583.748,614.44C583.748,614.322 583.677,614.226 583.589,614.226L579.664,614.226C579.576,614.226 579.505,614.322 579.505,614.44L579.505,614.869C579.505,614.987 579.576,615.083 579.664,615.083L583.589,615.083C583.677,615.083 583.748,614.987 583.748,614.869L583.748,614.44Z" style="fill:rgb(74,71,87);"/>
                </g>
                <g transform="matrix(0.830187,-0.479309,5.55112e-17,1.1547,24.2417,-7.8797)">
                    <path d="M583.748,614.44C583.748,614.322 583.648,614.226 583.525,614.226L579.728,614.226C579.605,614.226 579.505,614.322 579.505,614.44L579.505,614.869C579.505,614.987 579.605,615.083 579.728,615.083L583.525,615.083C583.648,615.083 583.748,614.987 583.748,614.869L583.748,614.44Z" style="fill:rgb(74,71,87);"/>
                </g>
            </g>
            <g transform="matrix(1,0,0,1,-22.2179,41.6132)">
                <g transform="matrix(0.866025,-0.5,6.39186e-17,1.32959,-5.23448e-15,-108.884)">
                    <path d="M591.248,615.079C591.248,614.618 590.817,614.243 590.286,614.243L578.906,614.243C578.375,614.243 577.944,614.618 577.944,615.079L577.944,621.763C577.944,622.224 578.375,622.599 578.906,622.599L590.286,622.599C590.817,622.599 591.248,622.224 591.248,621.763L591.248,615.079Z" style="fill:rgb(175,218,203);"/>
                </g>
                <g transform="matrix(0.866025,-0.5,5.55112e-17,1.1547,0,0)">
                    <path d="M583.748,614.44C583.748,614.322 583.652,614.226 583.534,614.226L579.719,614.226C579.601,614.226 579.505,614.322 579.505,614.44L579.505,614.869C579.505,614.987 579.601,615.083 579.719,615.083L583.534,615.083C583.652,615.083 583.748,614.987 583.748,614.869L583.748,614.44Z" style="fill:rgb(74,71,87);"/>
                </g>
                <g transform="matrix(0.557578,-0.321918,5.55112e-17,1.1547,178.747,-100.657)">
                    <path d="M583.748,614.44C583.748,614.322 583.599,614.226 583.416,614.226L579.837,614.226C579.654,614.226 579.505,614.322 579.505,614.44L579.505,614.869C579.505,614.987 579.654,615.083 579.837,615.083L583.416,615.083C583.599,615.083 583.748,614.987 583.748,614.869L583.748,614.44Z" style="fill:rgb(74,71,87);"/>
                </g>
                <g transform="matrix(0.557578,-0.321918,5.55112e-17,1.1547,178.747,-98.8703)">
                    <path d="M583.748,614.44C583.748,614.322 583.599,614.226 583.416,614.226L579.837,614.226C579.654,614.226 579.505,614.322 579.505,614.44L579.505,614.869C579.505,614.987 579.654,615.083 579.837,615.083L583.416,615.083C583.599,615.083 583.748,614.987 583.748,614.869L583.748,614.44Z" style="fill:rgb(74,71,87);"/>
                </g>
                <g transform="matrix(0.557578,-0.321918,5.55112e-17,1.1547,178.747,-97.0832)">
                    <path d="M583.748,614.44C583.748,614.322 583.599,614.226 583.416,614.226L579.837,614.226C579.654,614.226 579.505,614.322 579.505,614.44L579.505,614.869C579.505,614.987 579.654,615.083 579.837,615.083L583.416,615.083C583.599,615.083 583.748,614.987 583.748,614.869L583.748,614.44Z" style="fill:rgb(74,71,87);"/>
                </g>
                <g transform="matrix(1.06041,-0.612227,5.55112e-17,1.1547,-109.172,65.5726)">
                    <path d="M583.748,614.44C583.748,614.322 583.67,614.226 583.573,614.226L579.68,614.226C579.583,614.226 579.505,614.322 579.505,614.44L579.505,614.869C579.505,614.987 579.583,615.083 579.68,615.083L583.573,615.083C583.67,615.083 583.748,614.987 583.748,614.869L583.748,614.44Z" style="fill:rgb(74,71,87);"/>
                </g>
                <g transform="matrix(1.16854,-0.674658,5.55112e-17,1.1547,-171.836,103.539)">
                    <path d="M583.748,614.44C583.748,614.322 583.677,614.226 583.589,614.226L579.664,614.226C579.576,614.226 579.505,614.322 579.505,614.44L579.505,614.869C579.505,614.987 579.576,615.083 579.664,615.083L583.589,615.083C583.677,615.083 583.748,614.987 583.748,614.869L583.748,614.44Z" style="fill:rgb(74,71,87);"/>
                </g>
                <g transform="matrix(0.830187,-0.479309,5.55112e-17,1.1547,24.2417,-7.8797)">
                    <path d="M583.748,614.44C583.748,614.322 583.648,614.226 583.525,614.226L579.728,614.226C579.605,614.226 579.505,614.322 579.505,614.44L579.505,614.869C579.505,614.987 579.605,615.083 579.728,615.083L583.525,615.083C583.648,615.083 583.748,614.987 583.748,614.869L583.748,614.44Z" style="fill:rgb(74,71,87);"/>
                </g>
            </g>
            <g transform="matrix(1,0,0,1,-1.51438,-10.3162)">
                <path d="M485.068,459.899L485.068,452.868L507.874,439.701L507.874,447.097" style="fill:none;stroke:rgb(74,71,87);stroke-width:0.74px;"/>
            </g>
            <g transform="matrix(0.866025,-0.5,4.80741e-17,1,81.1448,254.391)">
                <circle cx="491.006" cy="426.107" r="2.565" style="fill:rgb(83,128,207);"/>
                <g transform="matrix(1.22095,0,0,1.22095,-108.488,-94.8032)">
                    <path d="M487.43,433.077C487.259,433.077 487.097,433.001 486.987,432.87C486.877,432.739 486.831,432.567 486.86,432.398C487.288,430.499 488.982,429.072 491.006,429.072C493.03,429.072 494.724,430.499 495.135,432.401C495.164,432.565 495.119,432.733 495.012,432.86C494.905,432.987 494.748,433.06 494.581,433.06C493.012,433.077 489,433.077 487.43,433.077Z" style="fill:rgb(83,128,207);"/>
                </g>
            </g>
            <g transform="matrix(0.866025,-0.5,4.80741e-17,1,58.3386,267.947)">
                <circle cx="491.006" cy="426.107" r="2.565" style="fill:rgb(83,128,207);"/>
                <g transform="matrix(1.22095,0,0,1.22095,-108.488,-94.8032)">
                    <path d="M487.43,433.077C487.259,433.077 487.097,433.001 486.987,432.87C486.877,432.739 486.831,432.567 486.86,432.398C487.288,430.499 488.982,429.072 491.006,429.072C493.03,429.072 494.724,430.499 495.135,432.401C495.164,432.565 495.119,432.733 495.012,432.86C494.905,432.987 494.748,433.06 494.581,433.06C493.012,433.077 489,433.077 487.43,433.077Z" style="fill:rgb(83,128,207);"/>
                </g>
            </g>
        </g>
        <g transform="matrix(2.03837,0,0,2.03837,-327.689,-529.658)">
            <g transform="matrix(1.52086,-0.878069,1.75614,1.01391,-197.096,-341.763)">
                <path d="M-221.296,497.668L-238.531,543.607L-257.438,543.607L-274.371,498.475" style="fill:none;stroke:rgb(45,95,183);stroke-width:0.95px;"/>
            </g>
            <g transform="matrix(1.52086,-0.878069,1.75614,1.01391,-197.096,-341.763)">
                <path d="M-221.296,497.668L-238.531,543.607L-257.438,543.607L-274.371,498.475" style="fill:none;stroke:rgb(83,128,207);stroke-width:0.19px;"/>
            </g>
            <g transform="matrix(1,0,0,1,28.4003,19.6526)">
                <path d="M301.853,405.276L347.918,378.279" style="fill:none;stroke:rgb(45,95,183);stroke-width:2.21px;"/>
            </g>
            <g transform="matrix(1,0,0,1,28.4003,19.6526)">
                <path d="M301.853,405.276L347.918,378.279" style="fill:none;stroke:rgb(83,128,207);stroke-width:0.44px;"/>
            </g>
            <g transform="matrix(-2.40764,1.39005,-2.7801,-1.60509,1168.06,1571.33)">
                <path d="M-263.281,531.9L-247.985,518.411L-232.689,531.9" style="fill:none;stroke:rgb(45,95,183);stroke-width:0.6px;"/>
            </g>
            <g transform="matrix(-2.40764,1.39005,-2.7801,-1.60509,1168.06,1571.33)">
                <path d="M-263.281,531.9L-247.985,518.411L-232.689,531.9" style="fill:none;stroke:rgb(83,128,207);stroke-width:0.12px;"/>
            </g>
            <g transform="matrix(1.52086,-0.878069,1.75614,1.01391,-197.096,-341.763)">
                <path d="M-247.985,511.421L-232.689,528.035L-238.531,543.607L-257.438,543.607L-263.281,528.035L-247.985,511.421Z" style="fill:none;stroke:rgb(45,95,183);stroke-width:0.95px;"/>
            </g>
            <g transform="matrix(1.52086,-0.878069,1.75614,1.01391,-197.096,-341.763)">
                <path d="M-247.985,511.421L-232.689,528.035L-238.531,543.607L-257.438,543.607L-263.281,528.035L-247.985,511.421Z" style="fill:none;stroke:rgb(83,128,207);stroke-width:0.19px;"/>
            </g>
            <g transform="matrix(0.855458,0,0,0.855458,164.879,171.786)">
                <circle cx="271.357" cy="287.302" r="7.318" style="fill:rgb(83,207,164);"/>
            </g>
            <g transform="matrix(0.855458,0,0,0.855458,98.0057,179.218)">
                <circle cx="271.357" cy="287.302" r="7.318" style="fill:rgb(83,207,164);"/>
            </g>
            <g transform="matrix(0.855458,0,0,0.855458,143.548,152.924)">
                <circle cx="271.357" cy="287.302" r="7.318" style="fill:rgb(83,207,164);"/>
            </g>
            <g transform="matrix(0.855458,0,0,0.855458,131.658,190.966)">
                <circle cx="271.357" cy="287.302" r="7.318" style="fill:rgb(83,207,164);"/>
            </g>
        </g>
        <g transform="matrix(1.74374,0,0,1.74374,-140.448,-227.249)">
            <circle cx="271.357" cy="287.302" r="7.318" style="fill:rgb(83,207,164);"/>
        </g>
        <g transform="matrix(2.03837,0,0,2.03837,-269.798,-489.599)">
            <g transform="matrix(0.396864,0,0,0.396864,-34.6791,95.3198)">
                <g transform="matrix(1.90602,0,0,1.90602,-568.795,-7433.61)">
                    <path d="M603.667,4261.32L668.95,4262.56L668.95,4272.98L668.939,4272.98C668.638,4282.39 662.271,4291.76 649.838,4298.94C624.356,4313.65 582.979,4313.65 557.496,4298.94C545.064,4291.76 538.697,4282.39 538.396,4272.98L538.385,4272.98L538.385,4262.58L603.667,4261.32Z" style="fill:rgb(175,218,203);"/>
                </g>
                <g transform="matrix(-2.10126,1.21316,-2.42632,-1.40084,1972.68,10988.3)">
                    <path d="M-3913.49,3998.7C-3890.38,3998.7 -3871.61,3982.45 -3871.61,3962.43C-3871.61,3942.41 -3890.38,3926.16 -3913.49,3926.16C-3936.61,3926.16 -3955.37,3942.41 -3955.37,3962.43C-3955.37,3982.45 -3936.61,3998.7 -3913.49,3998.7" style="fill:rgb(217,243,234);"/>
                </g>
            </g>
            <g transform="matrix(1.08401,0,0,1.08401,-98.0286,49.9302)">
                <g transform="matrix(1.06066,-0.353553,0.612372,0.612372,-190.489,226.425)">
                    <path d="M283.528,234.127L308.625,248.617" style="fill:none;stroke:rgb(83,207,164);stroke-width:1.71px;"/>
                </g>
                <g transform="matrix(1.06066,-0.353553,0.612372,0.612372,-190.489,226.425)">
                    <path d="M283.528,234.127L308.625,248.617" style="fill:none;stroke:rgb(217,243,234);stroke-width:0.57px;stroke-dasharray:0.57,1.14,0,0;"/>
                </g>
                <g transform="matrix(0.736218,0,0,0.736218,89.3253,58.0388)">
                    <circle cx="271.357" cy="287.302" r="7.318" style="fill:url(#_Linear7);"/>
                </g>
                <g transform="matrix(0.900693,-0.300231,0.520015,0.520015,-115.481,235.607)">
                    <path d="M308.625,248.617L308.625,277.596" style="fill:none;stroke:rgb(83,207,164);stroke-width:2.01px;"/>
                </g>
                <g transform="matrix(0.900693,-0.300231,0.520015,0.520015,-115.481,235.607)">
                    <path d="M308.625,248.617L308.625,277.596" style="fill:none;stroke:rgb(217,243,234);stroke-width:0.67px;stroke-dasharray:0.67,1.34,0,0;"/>
                </g>
                <g transform="matrix(0.736218,0,0,0.736218,53.8327,58.0388)">
                    <circle cx="271.357" cy="287.302" r="7.318" style="fill:url(#_Linear8);"/>
                </g>
                <g transform="matrix(-0.891544,-0.297181,-0.514733,0.514733,653.905,236.132)">
                    <path d="M308.625,248.617L308.625,277.596" style="fill:none;stroke:rgb(83,207,164);stroke-width:2.03px;"/>
                </g>
                <g transform="matrix(-0.891544,-0.297181,-0.514733,0.514733,653.905,236.132)">
                    <path d="M308.625,248.617L308.625,277.596" style="fill:none;stroke:rgb(217,243,234);stroke-width:0.68px;stroke-dasharray:0.68,1.35,0,0;"/>
                </g>
                <path d="M235.864,287.302L306.85,287.302" style="fill:none;stroke:rgb(83,207,164);stroke-width:2.04px;"/>
                <path d="M235.864,287.302L306.85,287.302" style="fill:none;stroke:rgb(217,243,234);stroke-width:0.68px;stroke-dasharray:0.68,1.36,0,0;"/>
                <g transform="matrix(0.736218,0,0,0.736218,36.4224,75.7584)">
                    <circle cx="271.357" cy="287.302" r="7.318" style="fill:url(#_Linear9);"/>
                </g>
                <g transform="matrix(0.736218,0,0,0.736218,106.91,75.7584)">
                    <circle cx="271.357" cy="287.302" r="7.318" style="fill:url(#_Linear10);"/>
                </g>
                <g transform="matrix(1.06066,-0.353553,0.612372,0.612372,-190.489,226.425)">
                    <path d="M305.195,279.576L283.528,292.086L258.431,277.596L258.431,252.412" style="fill:none;stroke:rgb(83,207,164);stroke-width:1.71px;"/>
                </g>
                <g transform="matrix(1.06066,-0.353553,0.612372,0.612372,-190.489,226.425)">
                    <path d="M305.195,279.576L283.528,292.086L258.431,277.596L258.431,252.412" style="fill:none;stroke:rgb(217,243,234);stroke-width:0.57px;stroke-dasharray:0.57,1.14,0,0;"/>
                </g>
                <g transform="matrix(0.622491,-0.237645,-0.263355,0.727974,187.431,143.285)">
                    <path d="M215.346,247.464L247.474,275.34" style="fill:none;stroke:rgb(83,207,164);stroke-width:4.75px;"/>
                </g>
                <g transform="matrix(0.622491,-0.237645,-0.263355,0.727974,187.431,143.285)">
                    <path d="M215.346,247.464L247.474,275.34" style="fill:none;stroke:rgb(217,243,234);stroke-width:1.58px;stroke-dasharray:1.58,3.17,0,0;"/>
                </g>
                <g transform="matrix(-0.616768,-0.232298,0.257202,0.721367,355.56,143.781)">
                    <path d="M215.346,247.464L247.474,275.34" style="fill:none;stroke:rgb(83,207,164);stroke-width:4.76px;"/>
                </g>
                <g transform="matrix(-0.616768,-0.232298,0.257202,0.721367,355.56,143.781)">
                    <path d="M215.346,247.464L247.474,275.34" style="fill:none;stroke:rgb(217,243,234);stroke-width:1.59px;stroke-dasharray:1.59,3.17,0,0;"/>
                </g>
                <g transform="matrix(1.17699,0,0,1.17699,-48.0278,-50.85)">
                    <circle cx="271.357" cy="287.302" r="7.318" style="fill:url(#_Linear11);"/>
                </g>
                <g transform="matrix(0.791385,-0.120444,-0.120444,0.930462,112.995,65.2374)">
                    <path d="M247.474,275.34L267.018,292.298" style="fill:none;stroke:rgb(83,207,164);stroke-width:2.74px;"/>
                </g>
                <g transform="matrix(0.791385,-0.120444,-0.120444,0.930462,112.995,65.2374)">
                    <path d="M247.474,275.34L267.018,292.298" style="fill:none;stroke:rgb(217,243,234);stroke-width:0.91px;stroke-dasharray:0.91,1.83,0,0;"/>
                </g>
                <g transform="matrix(-0.791385,-0.120444,0.120444,0.930462,429.719,65.2374)">
                    <path d="M247.474,275.34L267.018,292.298" style="fill:none;stroke:rgb(83,207,164);stroke-width:2.74px;"/>
                </g>
                <g transform="matrix(-0.791385,-0.120444,0.120444,0.930462,429.719,65.2374)">
                    <path d="M247.474,275.34L267.018,292.298" style="fill:none;stroke:rgb(217,243,234);stroke-width:0.91px;stroke-dasharray:0.91,1.83,0,0;"/>
                </g>
                <g transform="matrix(0.736218,0,0,0.736218,89.3253,93.5314)">
                    <circle cx="271.357" cy="287.302" r="7.318" style="fill:url(#_Linear12);"/>
                </g>
                <g transform="matrix(0.736218,0,0,0.736218,53.8327,93.5314)">
                    <circle cx="271.357" cy="287.302" r="7.318" style="fill:url(#_Linear13);"/>
                </g>
            </g>
        </g>
        <g transform="matrix(2.03837,0,0,2.03837,-269.798,-489.599)">
            <g transform="matrix(0.396864,0,0,0.396864,69.7124,35.0494)">
                <g transform="matrix(1.90602,0,0,1.90602,-568.795,-7433.61)">
                    <path d="M603.667,4261.32L668.95,4262.56L668.95,4272.98L668.939,4272.98C668.638,4282.39 662.271,4291.76 649.838,4298.94C624.356,4313.65 582.979,4313.65 557.496,4298.94C545.064,4291.76 538.697,4282.39 538.396,4272.98L538.385,4272.98L538.385,4262.58L603.667,4261.32Z" style="fill:rgb(175,218,203);"/>
                </g>
                <g transform="matrix(-2.10126,1.21316,-2.42632,-1.40084,1972.68,10988.3)">
                    <path d="M-3913.49,3998.7C-3890.38,3998.7 -3871.61,3982.45 -3871.61,3962.43C-3871.61,3942.41 -3890.38,3926.16 -3913.49,3926.16C-3936.61,3926.16 -3955.37,3942.41 -3955.37,3962.43C-3955.37,3982.45 -3936.61,3998.7 -3913.49,3998.7" style="fill:rgb(217,243,234);"/>
                </g>
            </g>
            <g transform="matrix(1,0,0,1,-117.417,-56.3089)">
                <g transform="matrix(0.701571,0,0,0.701571,128.753,167.718)">
                    <g transform="matrix(1.28033,0,0,1.28033,-108.806,-109.539)">
                        <path d="M365.371,299.143L365.359,299.143C365.359,291.959 371.192,286.126 378.376,286.126C385.56,286.126 391.393,291.959 391.393,299.143L391.393,299.143C391.54,301.172 390.273,303.23 387.592,304.778C382.509,307.713 374.255,307.713 369.172,304.778C366.49,303.23 365.223,301.172 365.371,299.143Z" style="fill:url(#_Linear14);"/>
                        <clipPath id="_clip15">
                            <path d="M365.371,299.143L365.359,299.143C365.359,291.959 371.192,286.126 378.376,286.126C385.56,286.126 391.393,291.959 391.393,299.143L391.393,299.143C391.54,301.172 390.273,303.23 387.592,304.778C382.509,307.713 374.255,307.713 369.172,304.778C366.49,303.23 365.223,301.172 365.371,299.143Z"/>
                        </clipPath>
                        <g clip-path="url(#_clip15)">
                            <g transform="matrix(1.11329,0,0,1.11329,-58.9567,-100.629)">
                                <path d="M392.835,346.246C392.835,346.246 398.48,349.553 400.221,355.402C401.961,361.25 399.873,365.915 399.873,365.915L406.459,361.063C406.459,361.063 405.025,354.392 402.727,350.911C400.43,347.429 394.825,346.246 394.825,346.246L392.835,346.246Z" style="fill:url(#_Linear16);"/>
                            </g>
                        </g>
                    </g>
                    <g transform="matrix(0.958204,0,0,0.958204,17.1259,10.9287)">
                        <circle cx="375.646" cy="250.195" r="11.282" style="fill:url(#_Linear17);"/>
                    </g>
                </g>
                <g transform="matrix(0.701571,0,0,0.701571,151.026,154.858)">
                    <g transform="matrix(1.28033,0,0,1.28033,-108.806,-109.539)">
                        <path d="M365.371,299.143L365.359,299.143C365.359,291.959 371.192,286.126 378.376,286.126C385.56,286.126 391.393,291.959 391.393,299.143L391.393,299.143C391.54,301.172 390.273,303.23 387.592,304.778C382.509,307.713 374.255,307.713 369.172,304.778C366.49,303.23 365.223,301.172 365.371,299.143Z" style="fill:url(#_Linear18);"/>
                        <clipPath id="_clip19">
                            <path d="M365.371,299.143L365.359,299.143C365.359,291.959 371.192,286.126 378.376,286.126C385.56,286.126 391.393,291.959 391.393,299.143L391.393,299.143C391.54,301.172 390.273,303.23 387.592,304.778C382.509,307.713 374.255,307.713 369.172,304.778C366.49,303.23 365.223,301.172 365.371,299.143Z"/>
                        </clipPath>
                        <g clip-path="url(#_clip19)">
                            <g transform="matrix(1.11329,0,0,1.11329,-58.9567,-100.629)">
                                <path d="M392.835,346.246C392.835,346.246 398.48,349.553 400.221,355.402C401.961,361.25 399.873,365.915 399.873,365.915L406.459,361.063C406.459,361.063 405.025,354.392 402.727,350.911C400.43,347.429 394.825,346.246 394.825,346.246L392.835,346.246Z" style="fill:url(#_Linear20);"/>
                            </g>
                        </g>
                    </g>
                    <g transform="matrix(0.958204,0,0,0.958204,17.1259,10.9287)">
                        <circle cx="375.646" cy="250.195" r="11.282" style="fill:url(#_Linear21);"/>
                    </g>
                </g>
                <g transform="matrix(0.701571,0,0,0.701571,138.702,183.039)">
                    <g transform="matrix(1.28033,0,0,1.28033,-108.806,-109.539)">
                        <path d="M365.371,299.143L365.359,299.143C365.359,291.959 371.192,286.126 378.376,286.126C385.56,286.126 391.393,291.959 391.393,299.143L391.393,299.143C391.54,301.172 390.273,303.23 387.592,304.778C382.509,307.713 374.255,307.713 369.172,304.778C366.49,303.23 365.223,301.172 365.371,299.143Z" style="fill:url(#_Linear22);"/>
                        <clipPath id="_clip23">
                            <path d="M365.371,299.143L365.359,299.143C365.359,291.959 371.192,286.126 378.376,286.126C385.56,286.126 391.393,291.959 391.393,299.143L391.393,299.143C391.54,301.172 390.273,303.23 387.592,304.778C382.509,307.713 374.255,307.713 369.172,304.778C366.49,303.23 365.223,301.172 365.371,299.143Z"/>
                        </clipPath>
                        <g clip-path="url(#_clip23)">
                            <g transform="matrix(1.11329,0,0,1.11329,-58.9567,-100.629)">
                                <path d="M392.835,346.246C392.835,346.246 398.48,349.553 400.221,355.402C401.961,361.25 399.873,365.915 399.873,365.915L406.459,361.063C406.459,361.063 405.025,354.392 402.727,350.911C400.43,347.429 394.825,346.246 394.825,346.246L392.835,346.246Z" style="fill:url(#_Linear24);"/>
                            </g>
                        </g>
                    </g>
                    <g transform="matrix(0.958204,0,0,0.958204,17.1259,10.9287)">
                        <circle cx="375.646" cy="250.195" r="11.282" style="fill:url(#_Linear25);"/>
                    </g>
                </g>
                <g transform="matrix(0.701571,0,0,0.701571,175.81,161.615)">
                    <g transform="matrix(1.28033,0,0,1.28033,-108.806,-109.539)">
                        <path d="M365.371,299.143L365.359,299.143C365.359,291.959 371.192,286.126 378.376,286.126C385.56,286.126 391.393,291.959 391.393,299.143L391.393,299.143C391.54,301.172 390.273,303.23 387.592,304.778C382.509,307.713 374.255,307.713 369.172,304.778C366.49,303.23 365.223,301.172 365.371,299.143Z" style="fill:url(#_Linear26);"/>
                        <clipPath id="_clip27">
                            <path d="M365.371,299.143L365.359,299.143C365.359,291.959 371.192,286.126 378.376,286.126C385.56,286.126 391.393,291.959 391.393,299.143L391.393,299.143C391.54,301.172 390.273,303.23 387.592,304.778C382.509,307.713 374.255,307.713 369.172,304.778C366.49,303.23 365.223,301.172 365.371,299.143Z"/>
                        </clipPath>
                        <g clip-path="url(#_clip27)">
                            <g transform="matrix(1.11329,0,0,1.11329,-58.9567,-100.629)">
                                <path d="M392.835,346.246C392.835,346.246 398.48,349.553 400.221,355.402C401.961,361.25 399.873,365.915 399.873,365.915L406.459,361.063C406.459,361.063 405.025,354.392 402.727,350.911C400.43,347.429 394.825,346.246 394.825,346.246L392.835,346.246Z" style="fill:url(#_Linear28);"/>
                            </g>
                        </g>
                    </g>
                    <g transform="matrix(0.958204,0,0,0.958204,17.1259,10.9287)">
                        <circle cx="375.646" cy="250.195" r="11.282" style="fill:url(#_Linear29);"/>
                    </g>
                </g>
                <g transform="matrix(0.701571,0,0,0.701571,177.942,184.456)">
                    <g transform="matrix(1.28033,0,0,1.28033,-108.806,-109.539)">
                        <path d="M365.371,299.143L365.359,299.143C365.359,291.959 371.192,286.126 378.376,286.126C385.56,286.126 391.393,291.959 391.393,299.143L391.393,299.143C391.54,301.172 390.273,303.23 387.592,304.778C382.509,307.713 374.255,307.713 369.172,304.778C366.49,303.23 365.223,301.172 365.371,299.143Z" style="fill:url(#_Linear30);"/>
                        <clipPath id="_clip31">
                            <path d="M365.371,299.143L365.359,299.143C365.359,291.959 371.192,286.126 378.376,286.126C385.56,286.126 391.393,291.959 391.393,299.143L391.393,299.143C391.54,301.172 390.273,303.23 387.592,304.778C382.509,307.713 374.255,307.713 369.172,304.778C366.49,303.23 365.223,301.172 365.371,299.143Z"/>
                        </clipPath>
                        <g clip-path="url(#_clip31)">
                            <g transform="matrix(1.11329,0,0,1.11329,-58.9567,-100.629)">
                                <path d="M392.835,346.246C392.835,346.246 398.48,349.553 400.221,355.402C401.961,361.25 399.873,365.915 399.873,365.915L406.459,361.063C406.459,361.063 405.025,354.392 402.727,350.911C400.43,347.429 394.825,346.246 394.825,346.246L392.835,346.246Z" style="fill:url(#_Linear32);"/>
                            </g>
                        </g>
                    </g>
                    <g transform="matrix(0.958204,0,0,0.958204,17.1259,10.9287)">
                        <circle cx="375.646" cy="250.195" r="11.282" style="fill:url(#_Linear33);"/>
                    </g>
                </g>
            </g>
        </g>
    </g>
    <defs>
        <linearGradient id="_Linear1" x1="0" y1="0" x2="1" y2="0" gradientUnits="userSpaceOnUse" gradientTransform="matrix(-116.659,132.099,-132.099,-116.659,565.115,645.581)"><stop offset="0" style="stop-color:rgb(83,128,207);stop-opacity:1"/><stop offset="1" style="stop-color:rgb(17,70,164);stop-opacity:1"/></linearGradient>
        <linearGradient id="_Linear2" x1="0" y1="0" x2="1" y2="0" gradientUnits="userSpaceOnUse" gradientTransform="matrix(105.862,-300.032,285.328,-50.9846,1312.28,861.733)"><stop offset="0" style="stop-color:rgb(83,128,207);stop-opacity:1"/><stop offset="1" style="stop-color:rgb(17,70,164);stop-opacity:1"/></linearGradient>
        <linearGradient id="_Linear3" x1="0" y1="0" x2="1" y2="0" gradientUnits="userSpaceOnUse" gradientTransform="matrix(-55.1788,280.37,-280.37,-55.1788,612.952,825.739)"><stop offset="0" style="stop-color:rgb(74,71,87);stop-opacity:1"/><stop offset="1" style="stop-color:rgb(29,24,51);stop-opacity:1"/></linearGradient>
        <linearGradient id="_Linear5" x1="0" y1="0" x2="1" y2="0" gradientUnits="userSpaceOnUse" gradientTransform="matrix(-48.9436,153.051,-120.388,21.172,606.741,662.816)"><stop offset="0" style="stop-color:rgb(83,128,207);stop-opacity:1"/><stop offset="1" style="stop-color:rgb(17,70,164);stop-opacity:1"/></linearGradient>
        <linearGradient id="_Linear7" x1="0" y1="0" x2="1" y2="0" gradientUnits="userSpaceOnUse" gradientTransform="matrix(9.98098e-16,16.3002,-16.3002,9.98098e-16,272.554,283.563)"><stop offset="0" style="stop-color:rgb(83,128,207);stop-opacity:1"/><stop offset="1" style="stop-color:rgb(17,70,164);stop-opacity:1"/></linearGradient>
        <linearGradient id="_Linear8" x1="0" y1="0" x2="1" y2="0" gradientUnits="userSpaceOnUse" gradientTransform="matrix(8.61789e-16,14.0741,-14.0741,8.61789e-16,273.027,283.175)"><stop offset="0" style="stop-color:rgb(83,128,207);stop-opacity:1"/><stop offset="1" style="stop-color:rgb(17,70,164);stop-opacity:1"/></linearGradient>
        <linearGradient id="_Linear9" x1="0" y1="0" x2="1" y2="0" gradientUnits="userSpaceOnUse" gradientTransform="matrix(9.26805e-16,15.1359,-15.1359,9.26805e-16,271.837,282.781)"><stop offset="0" style="stop-color:rgb(83,128,207);stop-opacity:1"/><stop offset="1" style="stop-color:rgb(17,70,164);stop-opacity:1"/></linearGradient>
        <linearGradient id="_Linear10" x1="0" y1="0" x2="1" y2="0" gradientUnits="userSpaceOnUse" gradientTransform="matrix(8.07984e-16,13.1954,-13.1954,8.07984e-16,275.254,284.333)"><stop offset="0" style="stop-color:rgb(83,128,207);stop-opacity:1"/><stop offset="1" style="stop-color:rgb(17,70,164);stop-opacity:1"/></linearGradient>
        <linearGradient id="_Linear11" x1="0" y1="0" x2="1" y2="0" gradientUnits="userSpaceOnUse" gradientTransform="matrix(1.00168e-15,16.3587,-16.3587,1.00168e-15,271.357,282.8)"><stop offset="0" style="stop-color:rgb(83,128,207);stop-opacity:1"/><stop offset="1" style="stop-color:rgb(17,70,164);stop-opacity:1"/></linearGradient>
        <linearGradient id="_Linear12" x1="0" y1="0" x2="1" y2="0" gradientUnits="userSpaceOnUse" gradientTransform="matrix(8.93565e-16,14.593,-14.593,8.93565e-16,274.42,283.633)"><stop offset="0" style="stop-color:rgb(83,128,207);stop-opacity:1"/><stop offset="1" style="stop-color:rgb(17,70,164);stop-opacity:1"/></linearGradient>
        <linearGradient id="_Linear13" x1="0" y1="0" x2="1" y2="0" gradientUnits="userSpaceOnUse" gradientTransform="matrix(7.34021e-16,11.9875,-11.9875,7.34021e-16,272.251,284.643)"><stop offset="0" style="stop-color:rgb(83,128,207);stop-opacity:1"/><stop offset="1" style="stop-color:rgb(17,70,164);stop-opacity:1"/></linearGradient>
        <linearGradient id="_Linear14" x1="0" y1="0" x2="1" y2="0" gradientUnits="userSpaceOnUse" gradientTransform="matrix(-23.6974,0.950612,-0.950612,-23.6974,382.019,298.222)"><stop offset="0" style="stop-color:rgb(83,128,207);stop-opacity:1"/><stop offset="1" style="stop-color:rgb(17,70,164);stop-opacity:1"/></linearGradient>
        <linearGradient id="_Linear16" x1="0" y1="0" x2="1" y2="0" gradientUnits="userSpaceOnUse" gradientTransform="matrix(1.25327,-16.8147,16.8147,1.25327,401.683,363.061)"><stop offset="0" style="stop-color:rgb(82,125,201);stop-opacity:0"/><stop offset="1" style="stop-color:rgb(131,176,255);stop-opacity:1"/></linearGradient>
        <linearGradient id="_Linear17" x1="0" y1="0" x2="1" y2="0" gradientUnits="userSpaceOnUse" gradientTransform="matrix(-12.0564,18.5297,-18.5297,-12.0564,376.405,246.348)"><stop offset="0" style="stop-color:rgb(83,128,207);stop-opacity:1"/><stop offset="1" style="stop-color:rgb(17,70,164);stop-opacity:1"/></linearGradient>
        <linearGradient id="_Linear18" x1="0" y1="0" x2="1" y2="0" gradientUnits="userSpaceOnUse" gradientTransform="matrix(-23.6974,0.950612,-0.950612,-23.6974,382.019,298.222)"><stop offset="0" style="stop-color:rgb(83,128,207);stop-opacity:1"/><stop offset="1" style="stop-color:rgb(17,70,164);stop-opacity:1"/></linearGradient>
        <linearGradient id="_Linear20" x1="0" y1="0" x2="1" y2="0" gradientUnits="userSpaceOnUse" gradientTransform="matrix(1.25327,-16.8147,16.8147,1.25327,401.683,363.061)"><stop offset="0" style="stop-color:rgb(82,125,201);stop-opacity:0"/><stop offset="1" style="stop-color:rgb(131,176,255);stop-opacity:1"/></linearGradient>
        <linearGradient id="_Linear21" x1="0" y1="0" x2="1" y2="0" gradientUnits="userSpaceOnUse" gradientTransform="matrix(-12.0564,18.5297,-18.5297,-12.0564,376.405,246.348)"><stop offset="0" style="stop-color:rgb(83,128,207);stop-opacity:1"/><stop offset="1" style="stop-color:rgb(17,70,164);stop-opacity:1"/></linearGradient>
        <linearGradient id="_Linear22" x1="0" y1="0" x2="1" y2="0" gradientUnits="userSpaceOnUse" gradientTransform="matrix(-23.6974,0.950612,-0.950612,-23.6974,382.019,298.222)"><stop offset="0" style="stop-color:rgb(83,128,207);stop-opacity:1"/><stop offset="1" style="stop-color:rgb(17,70,164);stop-opacity:1"/></linearGradient>
        <linearGradient id="_Linear24" x1="0" y1="0" x2="1" y2="0" gradientUnits="userSpaceOnUse" gradientTransform="matrix(1.25327,-16.8147,16.8147,1.25327,401.683,363.061)"><stop offset="0" style="stop-color:rgb(82,125,201);stop-opacity:0"/><stop offset="1" style="stop-color:rgb(131,176,255);stop-opacity:1"/></linearGradient>
        <linearGradient id="_Linear25" x1="0" y1="0" x2="1" y2="0" gradientUnits="userSpaceOnUse" gradientTransform="matrix(-12.0564,18.5297,-18.5297,-12.0564,376.405,246.348)"><stop offset="0" style="stop-color:rgb(83,128,207);stop-opacity:1"/><stop offset="1" style="stop-color:rgb(17,70,164);stop-opacity:1"/></linearGradient>
        <linearGradient id="_Linear26" x1="0" y1="0" x2="1" y2="0" gradientUnits="userSpaceOnUse" gradientTransform="matrix(-23.6974,0.950612,-0.950612,-23.6974,382.019,298.222)"><stop offset="0" style="stop-color:rgb(83,128,207);stop-opacity:1"/><stop offset="1" style="stop-color:rgb(17,70,164);stop-opacity:1"/></linearGradient>
        <linearGradient id="_Linear28" x1="0" y1="0" x2="1" y2="0" gradientUnits="userSpaceOnUse" gradientTransform="matrix(1.25327,-16.8147,16.8147,1.25327,401.683,363.061)"><stop offset="0" style="stop-color:rgb(82,125,201);stop-opacity:0"/><stop offset="1" style="stop-color:rgb(131,176,255);stop-opacity:1"/></linearGradient>
        <linearGradient id="_Linear29" x1="0" y1="0" x2="1" y2="0" gradientUnits="userSpaceOnUse" gradientTransform="matrix(-12.0564,18.5297,-18.5297,-12.0564,376.405,246.348)"><stop offset="0" style="stop-color:rgb(83,128,207);stop-opacity:1"/><stop offset="1" style="stop-color:rgb(17,70,164);stop-opacity:1"/></linearGradient>
        <linearGradient id="_Linear30" x1="0" y1="0" x2="1" y2="0" gradientUnits="userSpaceOnUse" gradientTransform="matrix(-23.6974,0.950612,-0.950612,-23.6974,382.019,298.222)"><stop offset="0" style="stop-color:rgb(83,128,207);stop-opacity:1"/><stop offset="1" style="stop-color:rgb(17,70,164);stop-opacity:1"/></linearGradient>
        <linearGradient id="_Linear32" x1="0" y1="0" x2="1" y2="0" gradientUnits="userSpaceOnUse" gradientTransform="matrix(1.25327,-16.8147,16.8147,1.25327,401.683,363.061)"><stop offset="0" style="stop-color:rgb(82,125,201);stop-opacity:0"/><stop offset="1" style="stop-color:rgb(131,176,255);stop-opacity:1"/></linearGradient>
        <linearGradient id="_Linear33" x1="0" y1="0" x2="1" y2="0" gradientUnits="userSpaceOnUse" gradientTransform="matrix(-14.5648,17.8014,-17.8014,-14.5648,379.439,243.224)"><stop offset="0" style="stop-color:rgb(83,128,207);stop-opacity:1"/><stop offset="1" style="stop-color:rgb(17,70,164);stop-opacity:1"/></linearGradient>
    </defs>
</svg>
