<?xml version="1.0" encoding="utf-8"?>
<!-- Generator: Adobe Illustrator 24.0.2, SVG Export Plug-In . SVG Version: 6.00 Build 0)  -->
<svg version="1.1" id="Layer_1" xmlns="http://www.w3.org/2000/svg" xmlns:xlink="http://www.w3.org/1999/xlink" x="0px" y="0px"
	 viewBox="0 0 2560 820" style="enable-background:new 0 0 2560 820;" xml:space="preserve">
<style type="text/css">
	.st0{fill:url(#SVGID_1_);}
	.st1{fill:url(#SVGID_2_);}
	.st2{fill:url(#SVGID_3_);}
	.st3{fill:url(#SVGID_4_);}
	.st4{fill:url(#SVGID_5_);}
	.st5{fill:url(#SVGID_6_);}
	.st6{fill:url(#SVGID_7_);}
	.st7{fill:#CCCCCC;}
	.st8{fill:#4D4D4D;}
	.st9{fill:url(#SVGID_8_);}
	.st10{fill:#FFFFFF;}
</style>
<g>
	<g>
		<path class="st8" d="M901.28,525.41c-17.38-5.79-31.04-13.3-40.96-22.52l13.12-27.67c9.45,8.51,21.57,15.43,36.36,20.75
			c14.77,5.32,29.97,7.98,45.58,7.98c20.57,0,35.94-3.49,46.11-10.46c10.17-6.97,15.25-16.25,15.25-27.85
			c0-8.51-2.78-15.43-8.34-20.75c-5.56-5.32-12.41-9.4-20.57-12.23c-8.16-2.84-19.69-6.03-34.58-9.58
			c-18.68-4.49-33.76-8.99-45.22-13.48c-11.47-4.49-21.28-11.41-29.44-20.75c-8.16-9.34-12.23-21.93-12.23-37.77
			c0-13.24,3.49-25.18,10.46-35.82c6.97-10.64,17.56-19.16,31.74-25.54c14.19-6.38,31.8-9.57,52.85-9.57
			c14.66,0,29.09,1.89,43.27,5.67c14.19,3.78,26.37,9.22,36.53,16.32l-11.71,28.37c-10.41-6.62-21.52-11.65-33.34-15.08
			c-11.83-3.42-23.41-5.14-34.76-5.14c-20.1,0-35.17,3.67-45.22,11c-10.05,7.33-15.07,16.79-15.07,28.37
			c0,8.51,2.84,15.43,8.51,20.75s12.71,9.46,21.11,12.41c8.39,2.96,19.8,6.09,34.23,9.4c18.68,4.49,33.7,8.99,45.05,13.48
			c11.35,4.49,21.1,11.35,29.26,20.57c8.16,9.22,12.23,21.64,12.23,37.24c0,13.01-3.54,24.89-10.64,35.65
			c-7.09,10.76-17.85,19.28-32.27,25.54c-14.43,6.27-32.16,9.4-53.21,9.4C936.69,534.11,918.66,531.21,901.28,525.41z"/>
		<path class="st8" d="M1128.81,505.73c-18.44-18.91-27.67-46.11-27.67-81.58V282.99h35.47v139.75c0,53.2,23.29,79.8,69.88,79.8
			c22.7,0,40.08-6.56,52.14-19.69c12.06-13.12,18.09-33.16,18.09-60.12V282.99h34.4v141.17c0,35.71-9.22,62.96-27.67,81.76
			c-18.44,18.8-44.22,28.2-77.32,28.2C1173.02,534.11,1147.25,524.65,1128.81,505.73z"/>
		<path class="st8" d="M1597.34,282.99v248.28h-29.08l-148.97-185.15v185.15h-35.47V282.99h29.08l148.97,185.15V282.99H1597.34z"/>
		<path class="st8" d="M1721.13,313.85H1636v-30.86h205.37v30.86h-85.13v217.42h-35.11V313.85z"/>
		<path class="st8" d="M1920.81,517.61c-20.1-11-35.88-26.19-47.35-45.58c-11.47-19.39-17.2-41.02-17.2-64.91
			c0-23.88,5.73-45.52,17.2-64.91c11.46-19.39,27.25-34.58,47.35-45.58s42.68-16.49,67.75-16.49c24.83,0,47.29,5.5,67.39,16.49
			c20.09,11,35.83,26.13,47.18,45.4c11.35,19.28,17.02,40.97,17.02,65.09c0,24.12-5.68,45.82-17.02,65.09
			c-11.35,19.28-27.08,34.4-47.18,45.4c-20.1,11-42.56,16.5-67.39,16.5C1963.5,534.11,1940.91,528.61,1920.81,517.61z
			 M2037.69,490.12c14.54-8.28,26.01-19.69,34.4-34.23c8.39-14.54,12.59-30.8,12.59-48.77c0-17.97-4.2-34.23-12.59-48.77
			c-8.4-14.54-19.86-25.95-34.4-34.23c-14.54-8.27-30.92-12.41-49.13-12.41c-18.21,0-34.7,4.14-49.48,12.41
			c-14.78,8.28-26.37,19.69-34.76,34.23c-8.4,14.54-12.59,30.8-12.59,48.77c0,17.97,4.2,34.23,12.59,48.77
			c8.39,14.54,19.98,25.95,34.76,34.23c14.77,8.28,31.27,12.41,49.48,12.41C2006.76,502.54,2023.14,498.4,2037.69,490.12z"/>
		<path class="st8" d="M2273.37,282.99h18.09v248.28h-18.09V282.99z"/>
		<path class="st8" d="M2425.53,299.3h-89.38v-16.32H2533v16.32h-89.38v231.97h-18.09V299.3z"/>
	</g>
	<linearGradient id="SVGID_1_" gradientUnits="userSpaceOnUse" x1="27" y1="410" x2="780.2869" y2="410">
		<stop  offset="0" style="stop-color:#8CC63F"/>
		<stop  offset="1" style="stop-color:#29ABE2"/>
	</linearGradient>
	<path class="st0" d="M533.5,280.15V33.36H273.79v246.78H27v259.71h246.79v246.77H533.5V539.86h246.79V280.15H533.5z M767.36,293.08
		v48.91H509.91c-2.91-22.52-20.79-40.4-43.31-43.31V46.29h53.97v246.78H767.36z M767.36,416.46v48.62H386.81
		c-3.18-24.64-24.28-43.74-49.78-43.74s-46.59,19.1-49.78,43.74H39.93v-48.62h192.44v-12.93H39.93v-48.62h370.43
		c3.18,24.64,24.28,43.74,49.78,43.74s46.59-19.1,49.78-43.74h257.45v48.62H574.92v12.93H767.36z M374.32,471.55
		c0,20.56-16.72,37.28-37.28,37.28c-20.56,0-37.28-16.72-37.28-37.28c0-20.56,16.72-37.28,37.28-37.28
		C357.59,434.27,374.32,450.99,374.32,471.55z M422.85,348.45c0-20.56,16.72-37.28,37.28-37.28c20.56,0,37.28,16.72,37.28,37.28
		c0,20.56-16.72,37.28-37.28,37.28C439.58,385.73,422.85,369.01,422.85,348.45z M286.71,293.08V46.29h43.86v246.83h12.93V46.29
		h48.62v191.42h12.93V46.29h48.62v252.38c-22.52,2.91-40.4,20.79-43.31,43.31H39.93v-48.91H286.71z M39.93,526.93v-48.92h247.33
		c2.91,22.52,20.79,40.4,43.31,43.31v252.38h-43.86V526.93H39.93z M520.57,526.93v246.77H466.6V528.33h-12.93v245.38h-48.62V582.29
		h-12.93v191.42H343.5V521.32c22.52-2.91,40.4-20.79,43.31-43.31h380.55v48.92H520.57z"/>
</g>
</svg>
